<svg width="30" height="30" viewBox="0 0 30 30" fill="none" xmlns="http://www.w3.org/2000/svg">
<path fill-rule="evenodd" clip-rule="evenodd" d="M11.0417 6.75C11.0417 4.67894 12.8139 3 15 3C17.1861 3 18.9583 4.67894 18.9583 6.75C18.9583 8.82107 17.1861 10.5 15 10.5C12.8139 10.5 11.0417 8.82107 11.0417 6.75ZM15 0C11.065 0 7.875 3.02208 7.875 6.75C7.875 10.4779 11.065 13.5 15 13.5C18.9351 13.5 22.125 10.4779 22.125 6.75C22.125 3.02208 18.9351 0 15 0ZM6.99153 21.6015C9.41068 20.2264 12.1788 19.5 15 19.5C17.8212 19.5 20.5893 20.2264 23.0085 21.6015L23.968 22.1469C25.2804 22.8929 26.0833 24.2364 26.0833 25.6863C26.0833 26.4119 25.4625 27 24.6967 27H5.30341C4.53754 27 3.91667 26.4119 3.91667 25.6863C3.91667 24.2364 4.71962 22.8929 6.03192 22.1469L6.99153 21.6015ZM15 16.5C11.6049 16.5 8.27359 17.3742 5.36228 19.029L4.40269 19.5744C2.13657 20.8626 0.75 23.1827 0.75 25.6863C0.75 28.0686 2.78864 30 5.30341 30H24.6967C27.2113 30 29.25 28.0686 29.25 25.6863C29.25 23.1827 27.8635 20.8626 25.5973 19.5744L24.6378 19.029C21.7265 17.3742 18.3951 16.5 15 16.5Z" fill="#FFEF89"/>
</svg>
