<svg width="29" height="31" viewBox="0 0 29 31" fill="none" xmlns="http://www.w3.org/2000/svg">
<path fill-rule="evenodd" clip-rule="evenodd" d="M10.568 6.93152C10.568 4.86045 12.3403 3.18152 14.5264 3.18152C16.7125 3.18152 18.4847 4.86045 18.4847 6.93152C18.4847 9.00258 16.7125 10.6815 14.5264 10.6815C12.3403 10.6815 10.568 9.00258 10.568 6.93152ZM14.5264 0.181519C10.5913 0.181519 7.40137 3.2036 7.40137 6.93152C7.40137 10.6594 10.5913 13.6815 14.5264 13.6815C18.4614 13.6815 21.6514 10.6594 21.6514 6.93152C21.6514 3.2036 18.4614 0.181519 14.5264 0.181519ZM6.5179 21.783C8.93704 20.408 11.7052 19.6815 14.5264 19.6815C17.3476 19.6815 20.1157 20.408 22.5349 21.783L23.4944 22.3284C24.8068 23.0744 25.6097 24.4179 25.6097 25.8678C25.6097 26.5934 24.9889 27.1815 24.223 27.1815H4.82978C4.06391 27.1815 3.44303 26.5934 3.44303 25.8678C3.44303 24.4179 4.24599 23.0744 5.55829 22.3284L6.5179 21.783ZM14.5264 16.6815C11.1312 16.6815 7.79996 17.5557 4.88865 19.2105L3.92905 19.7559C1.66294 21.0441 0.276367 23.3642 0.276367 25.8678C0.276367 28.2501 2.315 30.1815 4.82978 30.1815H24.223C26.7377 30.1815 28.7764 28.2501 28.7764 25.8678C28.7764 23.3642 27.3898 21.0441 25.1236 19.7559L24.1641 19.2105C21.2528 17.5557 17.9215 16.6815 14.5264 16.6815Z" fill="#FFEF89"/>
</svg>
